Another Fine Release Brought to you from - 
IMAGiNE   


********************************************************************
**********************                         

The Hustle 2011 DVDRiP XViD - IMAGiNE

DETAILS:


Ripper ...........: IMAGiNE                                        
IMDB Rating.......:4.0/10                            

Video Codec.......: XVID                                         
Release Date......:26/08/11

Audio Codec.......:AC3                                           
Theatre Date......:06/07/11

Audio Bitrate.....:256                                              
Runtime.......:1h 32mn

Subtitles.........:NIL                                              
Language..........:ENGLISH

Resolution...... 720 x 304                                      
IMDb URL.......... http://www.imdb.com/title/tt1119186/

Video

ID                               : 0

Format                           : MPEG-4 Visual

Format profile                   : Advanced Simple@L5

Format settings, BVOP            : 2

Format settings, QPel            : No

Format settings, GMC             : No warppoints

Format settings, Matrix          : Default (MPEG)

Muxing mode                      : Packed bitstream

Codec ID                         : XVID

Codec ID/Hint                    : XviD

Duration                         : 1h 37mn

Bit rate                         : 1 755 Kbps

Width                            : 720 pixels

Height                           : 304 pixels

Display aspect ratio             : 2.35:1

Frame rate                       : 23.976 fps

Color space                      : YUV

Chroma subsampling               : 4:2:0

Bit depth                        : 8 bits

Scan type                        : Progressive

Compression mode                 : Lossy

Bits/(Pixel*Frame)               : 0.334

Stream size                      : 1.19 GiB (87%)

Writing library                  : XviD 64


Audio

ID                               : 1

Format                           : AC-3

Format/Info                      : Audio Coding 3

Mode extension                   : CM (complete main)

Codec ID                         : 2000

Duration                         : 1h 36mn

Bit rate mode                    : Constant

Bit rate                         : 256 Kbps

Channel(s)                       : 6 channels

Channel positions                : Front: L C R, Side: L R, LFE

Sampling rate                    : 48.0 KHz

Bit depth                        : 16 bits

Compression mode                 : Lossy

Stream size                      : 178 MiB (13%)

Alignment                        : Aligned on interleaves

Interleave, duration             : 42 ms (1.00 video frame)

SOURCES:

VIDEO: .............. Thanks 

AUDIO: .............. Thanks Matey 


NOTES:

IMAGiNE bringing you another release..........

Tha Hustel DVDRiP............

Not much to say here folks, made a script to

crop size and sharpen then muxed the ac3

back to our encode 

Enjoy!

SCREENS: 
http://i1120.photobucket.com/albums/l493/imran5230/jgdne.png






